<svg xmlns="http://www.w3.org/2000/svg" fill="none" viewBox="0 0 47 45" height="45" width="47">
<path fill="black" d="M35.8019 44.7601C35.22 44.7601 34.6516 44.5329 34.223 44.1043L28.1713 38.0426H17.9838C17.3649 38.0426 16.8647 37.5413 16.8647 36.9236C16.8647 36.3059 17.3649 35.8045 17.9838 35.8045H28.6368C28.9345 35.8045 29.2199 35.922 29.4291 36.1324L35.8075 42.522L35.8098 36.9236C35.8098 36.3059 36.31 35.8045 36.9288 35.8045H41.4049C43.2557 35.8045 44.7619 34.2983 44.7619 32.4475V12.3051C44.7619 11.11 44.1196 9.99767 43.0856 9.40347C42.5496 9.09574 42.3639 8.4109 42.6727 7.87489C42.9816 7.33888 43.6631 7.15536 44.2002 7.46197C45.9268 8.45454 47 10.3099 47 12.304V32.4464C47 35.5315 44.49 38.0415 41.4049 38.0415H38.0478V42.5175C38.0478 43.4262 37.5051 44.2386 36.6636 44.5866C36.3849 44.703 36.0918 44.7589 35.8031 44.7589L35.8019 44.7601Z"/>
<path fill="black" d="M11.1924 38.0456C10.9037 38.0456 10.6117 37.9896 10.333 37.8744C9.49377 37.5264 8.95217 36.7151 8.95217 35.8064V31.3326H5.5951C2.50996 31.3326 0 28.8226 0 25.7375V5.59511C0 2.50996 2.50996 0 5.5951 0H34.6896C37.7748 0 40.2848 2.50996 40.2848 5.59511V25.7375C40.2848 28.8226 37.7748 31.3326 34.6896 31.3326H18.8286L12.7725 37.3887C12.3428 37.8173 11.7732 38.0456 11.1924 38.0456ZM5.5951 2.23804C3.74424 2.23804 2.23804 3.74424 2.23804 5.59511V25.7375C2.23804 27.5883 3.74424 29.0945 5.5951 29.0945H10.0712C10.69 29.0945 11.1902 29.5959 11.1902 30.2136V35.8064L17.5742 29.4224C17.7846 29.212 18.0677 29.0945 18.3654 29.0945H34.6896C36.5405 29.0945 38.0467 27.5883 38.0467 25.7375V5.59511C38.0467 3.74424 36.5405 2.23804 34.6896 2.23804H5.5951Z"/>
<path fill="black" d="M20.1421 20.1423C19.5233 20.1423 19.0231 19.6409 19.0231 19.0232V18.1616C19.0231 16.5357 19.9463 15.0563 21.4939 14.2047C22.5961 13.5949 23.1489 12.3371 22.8669 11.0771C22.6387 10.08 21.8128 9.25307 20.8113 9.02479C20.0179 8.84239 19.2212 8.9901 18.5699 9.43771C17.9231 9.88196 17.4889 10.5791 17.3793 11.349C17.2909 11.96 16.7381 12.3886 16.1114 12.2979C15.5004 12.2095 15.0752 11.6433 15.1625 11.0312C15.3628 9.64361 16.1416 8.39031 17.3021 7.59357C18.4748 6.78899 19.9004 6.5249 21.3081 6.8427C23.1579 7.26569 24.6272 8.73385 25.049 10.5836C25.5526 12.8261 24.5589 15.0664 22.576 16.1641C21.7524 16.6173 21.2611 17.3637 21.2611 18.1616V19.0232C21.2611 19.6409 20.7609 20.1423 20.1421 20.1423Z"/>
<path fill="black" d="M20.1425 24.6183C20.7605 24.6183 21.2615 24.1173 21.2615 23.4993C21.2615 22.8813 20.7605 22.3802 20.1425 22.3802C19.5244 22.3802 19.0234 22.8813 19.0234 23.4993C19.0234 24.1173 19.5244 24.6183 20.1425 24.6183Z"/>
</svg>