<svg xmlns="http://www.w3.org/2000/svg" fill="none" viewBox="0 0 57 38" height="38" width="57">
<path fill="black" d="M56.1273 20.0084C56.1013 19.96 56.0827 19.9078 56.0481 19.8642L49.0562 11.0078C48.8786 10.7826 48.6076 10.6512 48.3206 10.6512H39.0147V0.9375C39.0147 0.419769 38.595 0 38.0772 0H5.29633C4.77859 0 4.35883 0.419769 4.35883 0.9375V10.1349H2.42523C1.9075 10.1349 1.48773 10.5547 1.48773 11.0724C1.48773 11.5901 1.9075 12.0099 2.42523 12.0099H5.28048C5.28608 12.01 5.29072 12.0131 5.29633 12.0131C5.30193 12.0131 5.30657 12.01 5.31218 12.0099H12.9131C13.4308 12.0099 13.8506 11.5901 13.8506 11.0724C13.8506 10.5547 13.4308 10.1349 12.9131 10.1349H6.23383V1.875H29.902V12.4113C29.902 12.9291 30.3218 13.3488 30.8395 13.3488C31.3573 13.3488 31.777 12.9291 31.777 12.4113V1.875H37.1397V31.8832H21.7114C21.2704 29.4868 19.1701 27.6645 16.6479 27.6645C14.1263 27.6645 12.026 29.4868 11.5849 31.8832H6.23383V22.126H14.4008C14.9185 22.126 15.3383 21.7062 15.3383 21.1885C15.3383 20.6708 14.9185 20.251 14.4008 20.251H0.9375C0.419769 20.251 0 20.6708 0 21.1885C0 21.7062 0.419769 22.126 0.9375 22.126H4.35883V32.8207C4.35883 33.3385 4.77859 33.7582 5.29633 33.7582H11.586C12.03 36.1511 14.1288 37.9697 16.6479 37.9697C19.1675 37.9697 21.2663 36.1511 21.7104 33.7582H38.0772H41.6331C42.0772 36.1511 44.176 37.9697 46.6956 37.9697C49.2151 37.9697 51.3139 36.1511 51.758 33.7582H55.3125C55.8302 33.7582 56.25 33.3385 56.25 32.8207V20.4451C56.25 20.3272 56.2229 20.2136 56.1806 20.1054C56.1669 20.0702 56.1451 20.0414 56.1273 20.0084ZM16.6479 36.0947C14.8412 36.0947 13.3708 34.6243 13.3708 32.8171C13.3708 31.0098 14.8412 29.5395 16.6479 29.5395C18.4552 29.5395 19.9255 31.0098 19.9255 32.8171C19.9255 34.6243 18.4552 36.0947 16.6479 36.0947ZM46.6956 36.0947C44.8912 36.0947 43.4235 34.6287 43.4188 32.8255C43.4188 32.8238 43.4198 32.8225 43.4198 32.8207C43.4198 32.8182 43.4183 32.816 43.4183 32.8135C43.4204 31.0079 44.8896 29.5395 46.6956 29.5395C48.5 29.5395 49.9678 31.0055 49.9723 32.809C49.9723 32.8131 49.9699 32.8166 49.9699 32.8207C49.9699 32.8241 49.9718 32.8267 49.9718 32.8301C49.9646 34.6311 48.4983 36.0947 46.6956 36.0947ZM51.7591 31.8832C51.318 29.4868 49.2177 27.6645 46.6956 27.6645C44.1735 27.6645 42.0731 29.4868 41.6321 31.8832H39.0147V12.5262H47.8665L53.3776 19.5071H49.0631C48.5454 19.5071 48.1256 19.9269 48.1256 20.4446C48.1256 20.9624 48.5454 21.3821 49.0631 21.3821H54.375V31.8832H51.7591Z"/>
<path fill="black" d="M12.9131 17.0684C13.4308 17.0684 13.8506 16.6486 13.8506 16.1309C13.8506 15.6131 13.4308 15.1934 12.9131 15.1934H2.42529C1.90756 15.1934 1.48779 15.6131 1.48779 16.1309C1.48779 16.6486 1.90756 17.0684 2.42529 17.0684H12.9131Z"/>
</svg>