<svg xmlns="http://www.w3.org/2000/svg" fill="none" viewBox="0 0 40 50" height="50" width="40">
<path fill="black" d="M39.3763 9.38429L20.4865 0.11022C20.1845 -0.0367399 19.8315 -0.0367399 19.5296 0.11022L0.626689 9.35726C0.251267 9.53632 0.00844595 9.91174 0 10.3281V28.0198C0 30.2196 0.717905 32.7551 1.98733 35.1575C3.25845 37.5638 4.97128 39.5735 6.79392 40.8159L19.386 49.4008C19.7546 49.6508 20.239 49.6508 20.6077 49.4008L33.2145 40.8159C37.0084 38.2293 40 32.6085 40 28.0198V10.3543C39.992 9.93919 39.7508 9.56377 39.3763 9.38429ZM37.8378 28.0198C37.8378 31.902 35.2073 36.8408 31.997 39.0296L20.0093 47.1989L8.00718 39.0296C4.85177 36.878 2.16216 31.8362 2.16216 28.0198V11.0025L19.9992 2.28505L37.8378 11.0279V28.0198Z"/>
<path fill="black" d="M6.32715 24.7939C6.32715 32.3454 12.4483 38.4666 19.9999 38.4666C27.551 38.4666 33.6722 32.3454 33.6722 24.7939C33.6722 17.2428 27.551 11.1216 19.9999 11.1216C12.4521 11.13 6.33559 17.2462 6.32715 24.7939ZM19.9999 13.2837C26.3567 13.2837 31.51 18.437 31.51 24.7939C31.51 31.1511 26.3567 36.3044 19.9999 36.3044C13.6426 36.3044 8.48931 31.1511 8.48931 24.7939C8.49649 18.44 13.6456 13.2909 19.9999 13.2837Z"/>
<path fill="black" d="M17.3868 29.0561C17.7905 29.494 18.4725 29.5232 18.9117 29.1211L26.6178 22.0624C27.0578 21.6591 27.0878 20.9754 26.6845 20.535C26.2812 20.0949 25.5975 20.065 25.1571 20.4683L18.2457 26.7989L14.9071 23.1781C14.5 22.7499 13.8247 22.728 13.3906 23.1283C12.9565 23.5286 12.924 24.2035 13.318 24.6439L17.3868 29.0561Z"/>
</svg>