<svg xmlns="http://www.w3.org/2000/svg" fill="none" viewBox="0 0 44 48" height="48" width="44">
<path stroke-width="0.2" stroke="black" fill="black" d="M1 12.7775C1 11.7555 1.58401 10.8795 2.46002 10.3928L20.8076 1.292C21.5863 0.902665 22.4137 0.902665 23.1924 1.292L41.54 10.3928C42.4647 10.8795 43 11.7555 43 12.7775V35.3592C43 36.3812 42.4647 37.3059 41.54 37.7439L23.1924 46.8934C22.4137 47.2341 21.5863 47.2341 20.8076 46.8934L2.46002 37.7439C1.58401 37.3059 1 36.3812 1 35.3592L1 12.7775ZM29.7138 17.0116L11.3175 7.86211L3.57937 11.7068L22.0243 20.8563L29.7138 17.0116ZM13.1669 6.9861L31.5632 16.1356L40.4206 11.7068L22.4623 2.8007C22.1703 2.65469 21.8297 2.65469 21.5863 2.8007L13.1669 6.9861ZM21.197 22.3163L2.70336 13.1182V35.3592C2.70336 35.7486 2.89803 36.0892 3.2387 36.2352L21.197 45.19V22.3163ZM41.3453 13.1182L22.8517 22.3163V45.19L40.7613 36.2352C41.1506 36.0892 41.3453 35.7486 41.3453 35.3592V13.1182Z" clip-rule="evenodd" fill-rule="evenodd"/>
</svg>